# xmcd CD database file
#
# Track frame offsets:
#	150
#	13375
#	28150
#	38737
#	51337
#	61775
#	75075
#	86937
#	99600
#	109862
#	131975
#	142875
#	156800
#	173337
#	188225
#	203487
#	218137
#	233475
#	249762
#	267137
#	280537
#	292262
#	306075
#	318550
#	331287
#
# Disc length: 4637 seconds
#
# Revision: 3
# Processed by: cddbd v1.5.2PL0 Copyright (c) Steve Scherf et al.
# Submitted via: CDex 1.83
#
DISCID=59121b19
DTITLE=Andy Williams - B Sides And Rarities - B Sides And Rarities
DYEAR=2003
DGENRE=Easy Listening
TTITLE0=Louisiana Purchase (Irving Berlin) (12-1947)
TTITLE1=Jubilee (Kay Thompson) (12-1947)
TTITLE2=Help Me (Carole King-Cynthia Weil) (1-1962)
TTITLE3=The Peking Theme (Webster-Tiomkin) (2-1963)
TTITLE4=Autumn (Shire-Maltby) (2-1965)
TTITLE5=Here's To My Lady (Mercer-Bloom) (2-1965)
TTITLE6=I'll See You In My Dreams (Kahn-Jones) (5-1965)
TTITLE7=Loved One (Segal-Leigh) (6-1965)
TTITLE8=The Many Faces Of Love (Mort Shuman-Doc Pomus) (6-1965)
TTITLE9=Ave Maria (Franz Schubert) (7-1968)
TTITLE10=The Sound Of Music (Rodgers-Hammerstein II) (10-1968)
TTITLE11=What Am I Living For (Harris-Jacobson) (9-1969)
TTITLE12=Cherish (Terry Kirkman) (4-1970)
TTITLE13=Whistling Away The Dark (Mercer-Mancini) (7-1970)
TTITLE14=Free To Go (Paul Anka-Bert kaempfert) (7-1970)
TTITLE15=Someone Who Cares (Alex Harvey) (12-1970)
TTITLE16=The Last Time I Saw Her (Gordon Lightfoot) (4-1971)
TTITLE17=Long Long Time (Gary White) (4-1971)
TTITLE18=If You Could Read My Mind (Gordon Lightfoot) (4-1971)
TTITLE19=He Ain't Heavy, He's My Brother (Bob Russell-Robert Scott) (4-1971)
TTITLE20=Help Me Make It Through The Night (Kris Kristofferson) (6-1971)
TTITLE21=Home For Thee (P.Parrish) (2-1972)
TTITLE22=You Chose A Fine Time (Cook-Greenaway) (4-1972)
TTITLE23=Who Was It (G.O'Sullivan) (9-1972)
TTITLE24=I'll Never Be The Same (june Millington) (2-1973)
EXTD=YEAR: 2003
EXTT0=
EXTT1=
EXTT2=
EXTT3=
EXTT4=
EXTT5=
EXTT6=
EXTT7=
EXTT8=
EXTT9=
EXTT10=
EXTT11=
EXTT12=
EXTT13=
EXTT14=
EXTT15=
EXTT16=
EXTT17=
EXTT18=
EXTT19=
EXTT20=
EXTT21=
EXTT22=
EXTT23=
EXTT24=
PLAYORDER=
